<svg width="35" height="23" viewBox="0 0 35 23" fill="none" xmlns="http://www.w3.org/2000/svg">
<path d="M2.22758 17.0957L2.05671 17.1851C1.89904 17.2769 1.72433 17.3364 1.54294 17.3601C1.36156 17.3838 1.17722 17.3711 1.00089 17.3229C0.824553 17.2746 0.659823 17.1918 0.516494 17.0793C0.373165 16.9668 0.254165 16.8269 0.16657 16.668C0.0789743 16.5091 0.0245728 16.3343 0.00660025 16.1542C-0.0113723 15.974 0.00745115 15.7921 0.0619512 15.6193C0.116451 15.4465 0.205515 15.2863 0.323846 15.1483C0.442177 15.0102 0.587359 14.8971 0.750757 14.8157C4.00466 13.0573 6.9339 12.6419 9.83141 13.1781C12.6533 13.6925 15.3579 15.0886 18.1895 16.7238C23.3767 19.7164 29.4183 18.9169 32.8138 16.5233C33.1051 16.3106 33.4699 16.2212 33.8279 16.2746C34.1859 16.3281 34.5077 16.5201 34.7227 16.8083C34.9376 17.0966 35.028 17.4575 34.974 17.8117C34.92 18.166 34.7259 18.4844 34.4346 18.6971L34.4004 18.7213C30.1482 21.7283 22.9422 22.5858 16.825 19.057C13.9836 17.4266 11.6402 16.2552 9.32856 15.8325C7.13651 15.434 4.89075 15.6997 2.22758 17.0957ZM30.6022 14.0935C30.8194 14.0234 31.0318 13.951 31.2442 13.8737C32.3624 13.4673 33.4219 12.9176 34.3956 12.2385C34.6872 12.0327 34.8853 11.7216 34.9472 11.3725C35.0091 11.0233 34.9297 10.6641 34.7262 10.3724C34.5227 10.0806 34.2114 9.87981 33.8595 9.81321C33.5077 9.74661 33.1434 9.8196 32.8455 10.0164L32.8089 10.0406C29.4207 12.4366 23.3743 13.236 18.1871 10.2435C15.353 8.60829 12.6484 7.21223 9.82653 6.69535C6.92658 6.16639 3.99978 6.577 0.743434 8.33294C0.425559 8.50462 0.189628 8.79421 0.0875423 9.138C-0.0145433 9.4818 0.0255791 9.85164 0.199083 10.1662C0.372587 10.4807 0.66526 10.7141 1.01272 10.8152C1.36017 10.9162 1.73395 10.8765 2.05183 10.7048C4.798 9.22178 7.09501 8.93677 9.331 9.35221C11.6427 9.77489 13.9885 10.9439 16.8103 12.5743C18.8754 13.7642 21.169 14.5141 23.544 14.7757C25.9191 15.0373 28.3232 14.805 30.6022 14.0935V14.0935ZM5.6011 2.89846C6.4981 2.7143 7.41723 2.65899 8.33017 2.73422C8.66948 2.76561 9.0039 2.81151 9.33832 2.87189C11.65 3.29457 13.9934 4.46359 16.8177 6.09393C22.9447 9.62997 30.1506 8.76287 34.3931 5.7582C34.5436 5.65878 34.6726 5.53072 34.7727 5.38149C34.8727 5.23226 34.9417 5.06483 34.9757 4.88896C35.0097 4.71308 35.008 4.53227 34.9707 4.35705C34.9334 4.18183 34.8613 4.0157 34.7585 3.86833C34.6557 3.72096 34.5243 3.5953 34.3719 3.49866C34.2196 3.40201 34.0493 3.33632 33.8711 3.3054C33.6928 3.27448 33.5101 3.27896 33.3336 3.31857C33.1572 3.35817 32.9904 3.43212 32.8431 3.5361L32.8064 3.56026C29.4183 5.95626 23.3718 6.75573 18.1822 3.76073C15.3555 2.12555 12.6508 0.724665 9.82897 0.215031C6.93146 -0.313925 4.00222 0.0966803 0.745875 1.85262C0.428 2.0243 0.192069 2.31389 0.0899833 2.65769C-0.0121023 3.00148 0.0280201 3.37133 0.201524 3.68585C0.375028 4.00038 0.667701 4.23383 1.01516 4.33484C1.36262 4.43585 1.7364 4.39615 2.05427 4.22447C3.16207 3.60775 4.35792 3.16067 5.6011 2.89846V2.89846ZM17.5841 22.9964C17.5248 23.0012 17.4652 23.0012 17.4059 22.9964H17.5841Z" fill="#9CC2F7"/>
</svg>
