<svg width="41" height="42" viewBox="0 0 41 42" fill="none" xmlns="http://www.w3.org/2000/svg">
<path opacity="0.32" d="M34.78 22C35.793 22.0074 36.7914 21.7583 37.6821 21.2758C38.5729 20.7933 39.3269 20.0931 39.874 19.2405C40.4211 18.3879 40.7434 17.4107 40.8109 16.3999C40.8784 15.3891 40.6889 14.3777 40.26 13.46C39.8023 12.4185 39.048 11.5349 38.0912 10.9196C37.1344 10.3043 36.0175 9.9844 34.88 9.99998H34.72C34.7602 9.66816 34.7803 9.33422 34.78 8.99998C34.7808 7.10795 34.111 5.27688 32.8896 3.83194C31.6681 2.38701 29.9741 1.42175 28.1084 1.10759C26.2426 0.793432 24.3259 1.15071 22.6986 2.11598C21.0713 3.08124 19.8388 4.59202 19.22 6.37998C17.7344 5.91111 16.1464 5.87297 14.64 6.26998C13.3626 6.59957 12.1902 7.24897 11.2332 8.15697C10.2763 9.06497 9.56621 10.2017 9.17001 11.46C8.60497 13.1846 8.63927 15.0495 9.26734 16.7522C9.8954 18.4549 11.0804 19.8954 12.63 20.84C13.84 21.58 13.26 20 14.78 20C15.47 20 16.14 19.16 16.78 19L21.78 20L34.78 22Z" fill="#73A5E6"/>
<path d="M20.23 23.18C20.5818 23.4637 20.811 23.8719 20.87 24.32C20.9363 24.7647 20.8328 25.2181 20.58 25.59L20.48 25.72L18.25 28.45H23.25C23.5812 28.4503 23.906 28.5414 24.189 28.7134C24.472 28.8855 24.7023 29.1319 24.8549 29.4258C25.0076 29.7198 25.0766 30.0499 25.0546 30.3804C25.0326 30.7109 24.9203 31.0289 24.73 31.3L24.64 31.42L16.85 40.7C16.6293 40.9686 16.3355 41.1676 16.0042 41.2728C15.6728 41.3781 15.3181 41.3851 14.9828 41.2931C14.6476 41.2011 14.3461 41.014 14.1149 40.7543C13.8837 40.4947 13.7327 40.1736 13.68 39.83C13.6407 39.6027 13.6469 39.3698 13.6984 39.1449C13.7499 38.92 13.8456 38.7076 13.98 38.52L14.08 38.39L19.35 32.06H14.44C14.114 32.0535 13.796 31.9586 13.5197 31.7854C13.2435 31.6122 13.0195 31.3672 12.8717 31.0767C12.7238 30.7861 12.6577 30.4608 12.6803 30.1356C12.7029 29.8103 12.8134 29.4973 13 29.23L13.09 29.12L17.74 23.43C18.0445 23.0612 18.4825 22.828 18.9584 22.7811C19.4344 22.7343 19.9095 22.8777 20.28 23.18H20.23Z" fill="#FFB300"/>
<path d="M36.62 23.82C36.332 23.0141 35.8659 22.2836 35.2565 21.6828C34.647 21.082 33.9099 20.6264 33.1 20.35C31.7389 19.8631 30.2511 19.8631 28.89 20.35C29.085 19.0797 29.017 17.7829 28.69 16.54C28.363 15.2353 27.7324 14.0262 26.8496 13.0114C25.9668 11.9966 24.8568 11.2046 23.61 10.7C22.4423 10.2023 21.1831 9.95525 19.9139 9.97484C18.6447 9.99442 17.3937 10.2802 16.2419 10.8137C15.0901 11.3472 14.0631 12.1165 13.2273 13.0719C12.3915 14.0273 11.7656 15.1475 11.39 16.36C9.61171 15.8194 7.70361 15.8898 5.97 16.56C4.98554 16.9204 4.08876 17.4855 3.3389 18.2182C2.58904 18.9508 2.00317 19.8342 1.62 20.81C1.08919 22.0307 0.871377 23.3646 0.986287 24.6907C1.1012 26.0169 1.5452 27.2934 2.27807 28.4046C3.01093 29.5158 4.00949 30.4266 5.18326 31.0544C6.35702 31.6822 7.6689 32.0072 9 32H11.06C10.7394 31.3879 10.5931 30.6995 10.6372 30.0099C10.6813 29.3204 10.914 28.6562 11.31 28.09L11.45 27.9L16.14 22.17C16.7773 21.3896 17.6978 20.8934 18.7 20.79H19.08C19.958 20.7927 20.8086 21.0962 21.49 21.65C22.2187 22.2378 22.7034 23.0752 22.85 24C22.9704 24.8342 22.8122 25.6848 22.4 26.42H23.21C23.8671 26.4172 24.5137 26.5844 25.0871 26.9054C25.6605 27.2263 26.1411 27.6901 26.4823 28.2517C26.8235 28.8133 27.0136 29.4536 27.0342 30.1104C27.0549 30.7671 26.9053 31.4181 26.6 32H31C31.9787 32.0049 32.9437 31.7703 33.8109 31.3167C34.6781 30.8632 35.4212 30.2043 35.9754 29.3977C36.5296 28.591 36.878 27.6611 36.9904 26.6889C37.1028 25.7167 36.9756 24.7318 36.62 23.82V23.82Z" fill="url(#paint0_linear_11933_44)"/>
<defs>
<linearGradient id="paint0_linear_11933_44" x1="19" y1="32" x2="19" y2="9.99998" gradientUnits="userSpaceOnUse">
<stop stop-color="#9FC7FF"/>
<stop offset="1" stop-color="#9BC1F5"/>
</linearGradient>
</defs>
</svg>
